<?xml version="1.0" encoding="UTF-8" standalone="no"?>
<svg
   xmlns:dc="http://purl.org/dc/elements/1.1/"
   xmlns:cc="http://creativecommons.org/ns#"
   xmlns:rdf="http://www.w3.org/1999/02/22-rdf-syntax-ns#"
   xmlns:svg="http://www.w3.org/2000/svg"
   xmlns="http://www.w3.org/2000/svg"
   xmlns:sodipodi="http://sodipodi.sourceforge.net/DTD/sodipodi-0.dtd"
   xmlns:inkscape="http://www.inkscape.org/namespaces/inkscape"
   version="1.1"
   width="36"
   height="36"
   viewBox="0 0 36 36"
   preserveAspectRatio="xMidYMid meet"
   id="svg8"
   sodipodi:docname="fast-forward.svg"
   inkscape:version="0.92.3 (2405546, 2018-03-11)">
  <metadata
     id="metadata14">
    <rdf:RDF>
      <cc:Work
         rdf:about="">
        <dc:format>image/svg+xml</dc:format>
        <dc:type
           rdf:resource="http://purl.org/dc/dcmitype/StillImage" />
      </cc:Work>
    </rdf:RDF>
  </metadata>
  <defs
     id="defs12" />
  <sodipodi:namedview
     pagecolor="#E0E0E0"
     bordercolor="#666666"
     borderopacity="1"
     objecttolerance="10"
     gridtolerance="10"
     guidetolerance="10"
     inkscape:pageopacity="0"
     inkscape:pageshadow="2"
     inkscape:window-width="960"
     inkscape:window-height="1061"
     id="namedview10"
     showgrid="false"
     inkscape:zoom="6.5555556"
     inkscape:cx="-7.4745763"
     inkscape:cy="18"
     inkscape:window-x="960"
     inkscape:window-y="0"
     inkscape:window-maximized="0"
     inkscape:current-layer="svg8" />
  <title
     id="title2">fast-forward-solid</title>
  <path
     class="clr-i-solid clr-i-solid-path-1"
     d="M17.71,32a2,2,0,0,1-.86-.2A1.77,1.77,0,0,1,16,30v-6.7L5.17,31.58a1.94,1.94,0,0,1-2.06.22A2,2,0,0,1,2,30V6A2,2,0,0,1,3.11,4.2a1.93,1.93,0,0,1,2.06.22L16,12.69V6a1.77,1.77,0,0,1,.85-1.79,1.93,1.93,0,0,1,2.06.22l15.32,12a2,2,0,0,1,0,3.15l-15.32,12A2,2,0,0,1,17.71,32Z"
     id="path4"
     style="fill:#E0E0E0" />
  <rect
     x="0"
     y="0"
     width="36"
     height="36"
     fill-opacity="0"
     id="rect6" />
</svg>
