<?xml version="1.0" encoding="UTF-8" standalone="no"?>
<svg
   xmlns:dc="http://purl.org/dc/elements/1.1/"
   xmlns:cc="http://creativecommons.org/ns#"
   xmlns:rdf="http://www.w3.org/1999/02/22-rdf-syntax-ns#"
   xmlns:svg="http://www.w3.org/2000/svg"
   xmlns="http://www.w3.org/2000/svg"
   xmlns:sodipodi="http://sodipodi.sourceforge.net/DTD/sodipodi-0.dtd"
   xmlns:inkscape="http://www.inkscape.org/namespaces/inkscape"
   version="1.1"
   width="36"
   height="36"
   viewBox="0 0 36 36"
   preserveAspectRatio="xMidYMid meet"
   id="svg10"
   sodipodi:docname="logout.svg"
   inkscape:version="0.92.3 (2405546, 2018-03-11)">
  <metadata
     id="metadata16">
    <rdf:RDF>
      <cc:Work
         rdf:about="">
        <dc:format>image/svg+xml</dc:format>
        <dc:type
           rdf:resource="http://purl.org/dc/dcmitype/StillImage" />
      </cc:Work>
    </rdf:RDF>
  </metadata>
  <defs
     id="defs14" />
  <sodipodi:namedview
     pagecolor="#ffffff"
     bordercolor="#666666"
     borderopacity="1"
     objecttolerance="10"
     gridtolerance="10"
     guidetolerance="10"
     inkscape:pageopacity="0"
     inkscape:pageshadow="2"
     inkscape:window-width="960"
     inkscape:window-height="1061"
     id="namedview12"
     showgrid="false"
     inkscape:zoom="6.5555556"
     inkscape:cx="-3.6610169"
     inkscape:cy="18"
     inkscape:window-x="960"
     inkscape:window-y="0"
     inkscape:window-maximized="0"
     inkscape:current-layer="svg10" />
  <title
     id="title2">logout-line</title>
  <path
     d="M7,6H23v9.8h2V6a2,2,0,0,0-2-2H7A2,2,0,0,0,5,6V30a2,2,0,0,0,2,2H23a2,2,0,0,0,2-2H7Z"
     class="clr-i-outline clr-i-outline-path-1"
     id="path4"
     style="fill:#ffffff" />
  <path
     d="M28.16,17.28a1,1,0,0,0-1.41,1.41L30.13,22H15.63a1,1,0,0,0-1,1,1,1,0,0,0,1,1h14.5l-3.38,3.46a1,1,0,1,0,1.41,1.41L34,23.07Z"
     class="clr-i-outline clr-i-outline-path-2"
     id="path6"
     style="fill:#ffffff" />
  <rect
     x="0"
     y="0"
     width="36"
     height="36"
     fill-opacity="0"
     id="rect8" />
</svg>
