<?xml version="1.0" encoding="UTF-8" standalone="no"?>
<svg
   xmlns:dc="http://purl.org/dc/elements/1.1/"
   xmlns:cc="http://creativecommons.org/ns#"
   xmlns:rdf="http://www.w3.org/1999/02/22-rdf-syntax-ns#"
   xmlns:svg="http://www.w3.org/2000/svg"
   xmlns="http://www.w3.org/2000/svg"
   xmlns:sodipodi="http://sodipodi.sourceforge.net/DTD/sodipodi-0.dtd"
   xmlns:inkscape="http://www.inkscape.org/namespaces/inkscape"
   version="1.1"
   width="36"
   height="36"
   viewBox="0 0 36 36"
   preserveAspectRatio="xMidYMid meet"
   id="svg18"
   sodipodi:docname="table-line.svg"
   inkscape:version="0.92.3 (2405546, 2018-03-11)">
  <metadata
     id="metadata24">
    <rdf:RDF>
      <cc:Work
         rdf:about="">
        <dc:format>image/svg+xml</dc:format>
        <dc:type
           rdf:resource="http://purl.org/dc/dcmitype/StillImage" />
      </cc:Work>
    </rdf:RDF>
  </metadata>
  <defs
     id="defs22" />
  <sodipodi:namedview
     pagecolor="#E0E0E0"
     bordercolor="#666666"
     borderopacity="1"
     objecttolerance="10"
     gridtolerance="10"
     guidetolerance="10"
     inkscape:pageopacity="0"
     inkscape:pageshadow="2"
     inkscape:window-width="960"
     inkscape:window-height="1061"
     id="namedview20"
     showgrid="false"
     inkscape:zoom="9.2709556"
     inkscape:cx="11.820927"
     inkscape:cy="20.920119"
     inkscape:window-x="960"
     inkscape:window-y="0"
     inkscape:window-maximized="0"
     inkscape:current-layer="svg18" />
  <title
     id="title2">table-line</title>
  <path
     d="M 8.0292969 1.9199219 A 1 1 0 0 0 7 2.9199219 L 7 7 L 3 7 A 1 1 0 1 0 3 8.9199219 L 7 8.9199219 L 7 25.455078 A 1 1 0 0 0 7 26.484375 L 7 33 A 1 1 0 0 0 8 34 A 1 1 0 0 0 9 33 L 9 26.939453 L 16 26.939453 L 16 32.919922 A 1 1 0 0 0 17 33.919922 A 1 1 0 0 0 18 32.919922 L 18 26.939453 L 25 26.939453 L 25 33 A 1 1 0 0 0 26 34 A 1 1 0 0 0 27 33 L 27 26.939453 L 33.099609 26.939453 L 33.099609 26.919922 A 1 1 0 1 0 33.099609 25 L 27 25 L 27 18 L 33.109375 18 A 1 1 0 0 0 33.109375 16 L 27 16 L 27 9 A 1 1 0 0 0 26.996094 8.9199219 L 33 8.9199219 L 33 8.9394531 A 1 1 0 1 0 33 7 L 9 7 L 9 2.9199219 A 1 1 0 0 0 8.0292969 1.9199219 z M 9 8.9199219 L 16.017578 8.9199219 A 1 1 0 0 0 16 9.0996094 L 16 16 L 9 16 L 9 8.9199219 z M 17.982422 8.9199219 L 25.003906 8.9199219 A 1 1 0 0 0 25 9 L 25 16 L 18 16 L 18 9.0996094 A 1 1 0 0 0 17.982422 8.9199219 z M 9 18 L 16 18 L 16 25 L 9 25 L 9 18 z M 18 18 L 25 18 L 25 25 L 18 25 L 18 18 z "
     id="path4"
     style="fill:#E0E0E0;fill-opacity:1" />
  <rect
     x="0"
     y="0"
     width="36"
     height="36"
     fill-opacity="0"
     id="rect16" />
</svg>
